<?xml version="1.0" standalone="no"?><!DOCTYPE svg PUBLIC "-//W3C//DTD SVG 1.1//EN" "http://www.w3.org/Graphics/SVG/1.1/DTD/svg11.dtd"><svg t="1647101863570" class="icon" viewBox="0 0 1024 1024" version="1.1" xmlns="http://www.w3.org/2000/svg" p-id="6275" width="32" height="32" xmlns:xlink="http://www.w3.org/1999/xlink"><defs><style type="text/css"></style></defs><path d="M512 64a448 448 0 1 1 0 896A448 448 0 0 1 512 64z" fill="#3DAB53" p-id="6276"></path><path d="M508.032 598.912c-47.744 0-87.808-30.784-89.344-89.344-3.072-53.888 44.672-90.88 90.88-92.416 52.352-1.536 84.736 58.56 84.736 58.56l135.552-49.28S674.368 281.6 521.856 281.6C380.16 283.136 281.6 380.16 281.6 512.64c0 117.12 92.416 235.712 235.648 229.504 158.72-6.144 212.608-144.768 212.608-144.768l-140.16-46.208c1.536 1.536-27.776 47.744-81.664 47.744" fill="#FFFFFF" p-id="6277"></path></svg>