<?xml version="1.0" standalone="no"?><!DOCTYPE svg PUBLIC "-//W3C//DTD SVG 1.1//EN" "http://www.w3.org/Graphics/SVG/1.1/DTD/svg11.dtd"><svg t="1654008228409" class="icon" viewBox="0 0 1030 1024" version="1.1" xmlns="http://www.w3.org/2000/svg" p-id="12712" xmlns:xlink="http://www.w3.org/1999/xlink" width="32.1875" height="32"><defs><style type="text/css">@font-face { font-family: feedback-iconfont; src: url("//at.alicdn.com/t/font_1031158_u69w8yhxdu.woff2?t=1630033759944") format("woff2"), url("//at.alicdn.com/t/font_1031158_u69w8yhxdu.woff?t=1630033759944") format("woff"), url("//at.alicdn.com/t/font_1031158_u69w8yhxdu.ttf?t=1630033759944") format("truetype"); }
</style></defs><path d="M511.97340302 817.46717664a305.49377362 305.49377362 0 1 1 305.70570153-305.49377362 14.30511954 14.30511954 0 1 1-28.50427545 0 276.98949878 276.98949878 0 1 0-277.20142608 276.98949878 14.30511954 14.30511954 0 1 1 0 28.50427484zM626.85940709 743.86468783l154.7284108-154.72841078a18.86156501 18.86156501 0 0 1 26.68169663 0l7.94728898 7.94728897a16.95421568 16.95421568 0 0 1 0 23.96902186l-156.08474818 156.08474818a0.74174678 0.74174678 0 0 1-1.04904239 0l-32.21300929-32.22360584a0.74174678 0.74174678 0 0 1 0-1.05963893zM620.69231133 751.13380811l-13.45740912 42.06764761 46.41216579-9.00692729-32.95475667-33.06072032z" fill="#333333" p-id="12713"></path><path d="M520.98033031 438.75238383a549.31658783 549.31658783 0 0 0 158.94577162 79.2609588l-12.92758906 22.78222739a521.44809611 521.44809611 0 0 1-154.38932673-80.32059713 532.89219163 532.89219163 0 0 1-154.70721829 80.00270556l-12.60969751-22.88819162a579.94013993 579.94013993 0 0 0 158.94577161-78.837103z m-118.67950968-36.4515632a316.51401394 316.51401394 0 0 1-32.42493781 50.86264701l-22.78222738-14.41108381a269.88992083 269.88992083 0 0 0 49.69704504-92.82433037l25.85517871 5.51012017c-2.01331301 6.35783117-5.1922286 15.47072152-9.64270982 27.23270859h96.95692066v23.6299384h-52.98192429a358.68762519 358.68762519 0 0 1 14.72897536 36.13367226l-24.90150464 8.79499879a361.01882977 361.01882977 0 0 0-16.95421567-44.92867105z m221.88829724 162.65450666a395.77497213 395.77497213 0 0 1-35.28596123 82.54583744h79.15499455v24.68957674H357.05425742v-24.47764944h203.45058804a481.71165307 481.71165307 0 0 0 37.93505736-89.53945113z m-201.33131077-2.64909672a414.00075403 414.00075403 0 0 1 28.71620273 68.98246527l-23.94782996 6.25186691a369.28401029 369.28401029 0 0 0-28.71620274-67.49897112z m-5.51012015-42.38553918h190.73492628v23.84186631h-190.73492628z m90.59909006 35.39192547a569.13182753 569.13182753 0 0 1 22.35837157 73.22101919l-23.6299378 6.25186692a471.85701473 471.85701473 0 0 0-23.62993841-71.84348929z m49.69704442-152.90583259a293.8377502 293.8377502 0 0 1-21.19276958 36.13367226l-23.10011893-14.51704745a236.51130836 236.51130836 0 0 0 37.51120213-78.09535562l25.4313235 5.51012017c-1.90734935 6.35783117-4.87433704 15.47072152-8.7949994 27.2327086h107.55330574v23.62993839h-58.70397172a247.42558501 247.42558501 0 0 1 19.17945658 39.41855149l-24.26572093 8.7949994a522.71966174 522.71966174 0 0 0-22.14644427-48.21355089z" fill="#333333" p-id="12714"></path></svg>