<?xml version="1.0" standalone="no"?><!DOCTYPE svg PUBLIC "-//W3C//DTD SVG 1.1//EN" "http://www.w3.org/Graphics/SVG/1.1/DTD/svg11.dtd"><svg t="1653925513163" class="icon" viewBox="0 0 1102 1024" version="1.1" xmlns="http://www.w3.org/2000/svg" p-id="3411" width="34.4375" height="32" xmlns:xlink="http://www.w3.org/1999/xlink"><defs><style type="text/css">@font-face { font-family: feedback-iconfont; src: url("//at.alicdn.com/t/font_1031158_u69w8yhxdu.woff2?t=1630033759944") format("woff2"), url("//at.alicdn.com/t/font_1031158_u69w8yhxdu.woff?t=1630033759944") format("woff"), url("//at.alicdn.com/t/font_1031158_u69w8yhxdu.ttf?t=1630033759944") format("truetype"); }
</style></defs><path d="M421.966769 333.272615h276.716308c18.432 0 36.864-7.68 48.679385-22.055384 28.672-33.792 55.847385-75.815385 61.479384-112.718769 12.288-74.830769-19.968-112.718769-112.718769-112.71877s-61.518769 60.967385-97.358769 66.087385c-27.175385 3.584-26.151385-31.783385-68.135385-66.087385-30.286769-24.615385-64.590769 44.544-104.566154 45.056-46.631385 0.512-112.718769-12.288-112.718769 67.66277 0 32.295385 28.16 75.815385 59.431385 112.246153 12.288 13.784615 30.208 22.528 49.191384 22.528zM708.923077 378.368h-295.660308c-21.543385 0-42.023385 8.664615-56.910769 24.064-92.711385 97.358769-178.294154 236.228923-178.294154 337.171692 0 89.166769 89.678769 201.885538 200.349539 201.885539h342.803692c110.670769 0 200.349538-111.694769 200.349538-201.885539 0.512-102.990769-68.647385-237.764923-154.230153-335.123692A77.784615 77.784615 0 0 0 708.923077 378.368z" fill="#FF9E27" p-id="3412"></path><path d="M588.327385 652.288h79.517538v39.660308h-92.593231v54.70523h92.632616v40.172308h-92.632616V866.461538h-47.655384v-79.635692h-96.098462v-40.172308h96.019692v-54.70523h-95.980307v-39.660308h81.92L413.538462 512h53.720615c46.670769 89.245538 75.067077 106.417231 85.110154 130.363077h0.984615c2.284308-6.577231 30.641231-50.018462 85.070769-130.363077h50.806154l-100.903384 140.288z" fill="#FFFFFF" p-id="3413"></path></svg>