<?xml version="1.0" standalone="no"?><!DOCTYPE svg PUBLIC "-//W3C//DTD SVG 1.1//EN" "http://www.w3.org/Graphics/SVG/1.1/DTD/svg11.dtd"><svg t="1646986949191" class="icon" viewBox="0 0 1024 1024" version="1.1" xmlns="http://www.w3.org/2000/svg" p-id="4277" xmlns:xlink="http://www.w3.org/1999/xlink" width="32" height="32"><defs><style type="text/css"></style></defs><path d="M512 64C264.896 64 64 264.896 64 512s200.896 448 448 448 448-200.896 448-448S759.104 64 512 64z" fill="#F48024" p-id="4278"></path><path d="M625.28 587.616l-237.792-34.4 8.224-52.064 232.576 44.704-2.976 41.76zM629.504 532.16l-210.464-98.208 19.296-42.08 210.464 98.24-19.296 42.08zM657.6 479.552l-178.912-149.088 29.792-35.072 178.912 149.12-29.824 35.04zM555.84 249.792l36.832-28.064 138.56 185.92-36.8 28.064-138.56-185.92zM626.016 656.704h-245.568v-52.608h245.568v52.608z" fill="#FFFFFF" p-id="4279"></path><path d="M661.088 551.456v140.32h-315.712v-140.288H292.768v192.928h420.928v-192.96H661.12z" fill="#FFFFFF" p-id="4280"></path></svg>